<?xml version="1.0" standalone="no"?>
<!DOCTYPE svg PUBLIC "-//W3C//DTD SVG 20010904//EN"
 "http://www.w3.org/TR/2001/REC-SVG-20010904/DTD/svg10.dtd">
<svg version="1.0" xmlns="http://www.w3.org/2000/svg"
 width="768.000000pt" height="768.000000pt" viewBox="0 0 768.000000 768.000000"
 preserveAspectRatio="xMidYMid meet">
<metadata>
Created by potrace 1.14, written by Peter Selinger 2001-2017
</metadata>
<g transform="translate(0.000000,768.000000) scale(0.100000,-0.100000)"
fill="#000000" stroke="none">
<path d="M3737 7544 c-1 -1 -40 -4 -87 -8 -47 -3 -96 -8 -110 -11 -14 -3 -51
-10 -82 -15 -206 -38 -346 -126 -478 -301 -113 -151 -175 -323 -197 -554 -15
-149 -2 -626 21 -820 3 -22 8 -76 12 -120 3 -44 8 -88 10 -98 9 -50 19 -206
19 -312 -1 -242 -67 -380 -345 -716 -57 -68 -106 -126 -110 -129 -14 -12 -134
-167 -171 -221 -74 -109 -126 -228 -169 -390 -90 -335 -133 -444 -266 -689
-191 -352 -240 -471 -247 -612 -2 -39 2 -83 9 -105 11 -32 11 -41 -2 -60 -8
-13 -27 -58 -43 -101 -44 -117 -51 -130 -90 -153 -33 -20 -52 -22 -211 -24
-145 -1 -181 -4 -212 -19 -47 -23 -114 -95 -138 -150 -24 -52 -37 -165 -29
-231 7 -54 16 -120 34 -253 3 -20 8 -50 11 -67 11 -63 11 -112 2 -160 -11 -58
-77 -200 -119 -258 -54 -74 -73 -181 -44 -238 46 -89 254 -164 595 -215 139
-21 404 -96 776 -220 400 -133 540 -158 691 -123 99 22 173 62 253 136 78 73
140 103 279 138 169 43 299 53 601 49 151 -2 286 -5 300 -7 14 -3 63 -8 110
-12 47 -4 96 -9 110 -10 14 -2 54 -6 90 -9 36 -4 102 -11 147 -17 l82 -11 26
-44 c37 -62 121 -144 187 -182 179 -100 437 -118 593 -40 77 39 199 126 269
193 37 35 288 248 361 307 117 93 262 187 369 237 307 146 333 160 379 208
102 105 103 247 2 344 -20 20 -89 63 -151 95 -125 64 -240 149 -278 205 -28
41 -42 89 -51 174 -8 84 -41 211 -71 271 -23 49 -75 91 -96 78 -12 -8 -10 27
6 82 29 99 49 260 50 399 1 132 -7 279 -19 335 -3 14 -7 44 -10 67 -9 76 -73
308 -108 394 -121 293 -147 348 -225 479 -78 131 -167 254 -274 380 -110 130
-374 523 -465 693 -88 166 -125 286 -148 482 -3 22 -10 63 -15 90 -5 28 -12
75 -15 105 -3 30 -8 77 -11 104 -3 27 -7 79 -9 115 -3 63 -10 136 -20 211 -2
19 -7 67 -10 105 -14 165 -60 384 -120 569 -33 104 -149 279 -241 366 -158
147 -335 231 -571 271 -101 17 -324 33 -336 23z m517 -1133 c84 -41 124 -96
152 -211 14 -55 13 -286 -2 -365 -8 -44 -17 -98 -20 -120 -8 -54 -16 -59 -55
-36 -19 11 -48 22 -66 24 -17 3 -39 9 -48 15 -15 8 -13 11 12 20 78 27 132
133 119 237 -8 74 -42 165 -74 198 -40 43 -115 76 -160 70 -60 -7 -122 -51
-151 -107 -21 -40 -26 -67 -29 -147 -2 -55 1 -112 6 -129 6 -16 9 -30 8 -30
-2 0 -19 7 -39 15 -31 13 -38 23 -56 78 -12 35 -24 74 -26 88 -3 13 -7 35 -10
49 -9 44 -6 154 4 188 39 131 139 193 301 189 65 -2 97 -8 134 -26z m-998 -37
c47 -22 102 -86 131 -153 22 -48 25 -71 25 -174 1 -79 -3 -126 -12 -142 -19
-35 -36 -31 -35 8 2 44 -30 189 -50 226 -21 42 -82 81 -125 81 -48 0 -91 -29
-132 -87 -32 -46 -33 -52 -35 -146 -1 -124 10 -161 70 -219 l48 -47 -39 -20
-39 -20 -35 47 c-69 92 -90 157 -90 278 1 135 48 286 106 336 55 48 148 62
212 32z m-30 -222 c31 -25 56 -79 61 -134 4 -45 3 -48 -18 -45 -19 3 -26 15
-39 63 -16 55 -19 59 -51 64 -26 4 -34 10 -34 25 -1 22 22 44 45 44 8 1 25 -7
36 -17z m1007 -17 c21 -20 37 -44 38 -53 2 -41 6 -69 13 -89 6 -18 3 -22 -13
-20 -14 1 -26 16 -40 49 -14 33 -31 55 -55 68 -29 18 -53 48 -44 55 13 10 45
24 54 25 6 0 27 -16 47 -35z m-526 -276 c50 -10 167 -50 363 -124 52 -19 120
-44 150 -56 94 -34 193 -88 234 -126 31 -29 39 -43 39 -72 0 -48 -32 -109 -80
-152 -52 -47 -401 -277 -493 -326 -255 -134 -424 -144 -607 -37 -67 39 -252
223 -286 283 -16 28 -25 51 -22 51 3 0 29 -18 58 -39 112 -85 272 -142 407
-146 138 -3 261 31 455 125 120 59 325 185 325 200 0 4 -7 11 -16 14 -8 3 -12
10 -9 16 3 5 3 15 0 20 -5 8 -83 -36 -105 -60 -3 -3 -43 -30 -90 -60 -227
-144 -416 -211 -581 -204 -92 4 -100 5 -190 43 -158 67 -296 191 -283 256 19
98 165 229 359 324 187 91 231 99 372 70z m794 -872 c21 -53 52 -121 68 -150
127 -232 169 -324 174 -388 14 -169 77 -316 238 -556 40 -59 85 -133 100 -163
40 -84 90 -244 103 -330 3 -19 10 -51 16 -70 19 -64 25 -192 25 -515 0 -270
-8 -471 -20 -483 -1 -2 -18 6 -37 18 -46 27 -116 35 -163 20 -76 -25 -141
-119 -171 -247 -20 -88 -30 -294 -14 -322 6 -12 13 -65 15 -119 l4 -97 -54
-70 c-200 -259 -474 -452 -760 -534 -38 -11 -86 -23 -105 -26 -19 -3 -42 -7
-50 -9 -21 -4 -97 -15 -150 -21 -56 -7 -273 -7 -320 0 -138 21 -182 30 -237
51 -137 51 -199 104 -262 224 -23 45 -41 83 -39 85 2 2 18 5 36 8 48 8 111 48
170 110 56 60 72 91 72 138 0 117 -276 410 -560 594 -201 131 -331 233 -441
347 -115 118 -155 232 -146 413 3 61 8 119 11 130 3 11 12 47 20 80 15 61 49
164 66 200 5 11 43 99 85 195 85 195 159 338 202 389 27 32 30 33 53 20 14 -8
28 -18 31 -23 4 -4 -18 -40 -47 -80 -49 -63 -151 -253 -196 -361 -104 -250
-148 -434 -145 -610 2 -96 5 -117 29 -167 23 -50 100 -148 117 -148 3 0 6 69
6 152 0 167 5 220 36 348 53 225 104 351 293 730 135 268 155 316 171 394 24
125 92 312 153 425 124 228 172 341 186 439 2 19 6 36 9 38 2 2 39 -26 81 -63
164 -144 191 -157 343 -169 232 -18 473 84 794 335 l104 81 33 -72 c19 -40 51
-117 73 -171z m840 -969 c173 -90 319 -338 348 -588 13 -115 4 -445 -14 -492
-3 -7 -7 -26 -9 -43 -2 -16 -15 -76 -29 -131 -15 -56 -27 -107 -29 -114 -4
-15 5 -16 123 -25 185 -14 330 -67 415 -152 57 -57 85 -108 92 -170 4 -35 2
-43 -11 -43 -9 0 -23 13 -32 30 -8 16 -36 58 -61 94 -45 65 -69 82 -199 137
-42 18 -183 41 -265 43 -163 5 -227 -32 -394 -229 -22 -25 -27 -28 -36 -15
-14 21 -14 20 30 89 50 77 124 151 188 187 47 26 50 31 75 108 30 92 62 222
71 281 3 22 9 58 12 80 30 201 -9 479 -92 652 -53 111 -179 234 -286 281 -30
12 -35 31 -16 50 15 15 50 6 119 -30z m-3417 -1627 c145 -70 237 -177 401
-466 87 -153 122 -203 272 -403 166 -220 226 -310 320 -482 48 -86 98 -229
118 -335 9 -50 7 -192 -5 -233 -7 -29 -29 -58 -80 -106 -142 -133 -295 -178
-466 -135 -76 19 -297 90 -339 109 -22 10 -186 67 -305 107 -64 21 -295 87
-340 98 -46 10 -169 35 -195 39 -16 2 -64 10 -105 16 -176 28 -327 77 -387
127 -12 10 -29 31 -37 47 -13 25 -12 34 1 80 8 28 39 97 68 153 82 156 99 212
100 318 0 49 -3 110 -7 135 -4 25 -10 61 -13 80 -3 19 -8 42 -11 50 -11 30
-19 107 -18 176 0 60 5 82 32 137 18 37 44 75 57 86 33 25 125 40 265 42 121
2 214 18 255 45 25 16 39 49 51 119 17 101 72 170 165 207 87 35 111 34 203
-11z m3216 -107 c51 -25 67 -49 89 -129 59 -214 161 -320 328 -343 186 -25
289 13 445 167 241 239 252 247 287 212 17 -17 52 -139 66 -231 17 -111 62
-224 122 -302 38 -51 124 -115 203 -150 92 -42 165 -100 199 -159 33 -58 33
-101 1 -176 -24 -56 -77 -93 -194 -137 -93 -35 -341 -165 -431 -226 -40 -27
-102 -73 -137 -102 -66 -55 -341 -293 -393 -340 -16 -15 -45 -35 -64 -45 -20
-10 -45 -26 -56 -36 -36 -33 -138 -76 -215 -91 -74 -15 -146 -15 -225 -1 -44
8 -158 55 -163 67 -2 4 -8 8 -13 8 -21 0 -107 87 -150 151 -26 39 -26 41 -13
103 7 34 16 85 20 112 3 27 8 52 10 56 2 3 6 55 9 113 3 59 8 121 11 138 3 18
12 70 21 117 12 67 16 181 18 540 2 458 4 498 31 580 32 100 113 144 194 104z"/>
<path d="M3465 5815 c-16 -7 -33 -11 -36 -9 -15 9 -40 -36 -37 -67 2 -26 8
-33 26 -34 41 -3 116 101 85 118 -5 2 -21 -1 -38 -8z"/>
<path d="M3617 5823 c-13 -13 -7 -35 21 -73 27 -39 52 -53 78 -43 34 13 -1 80
-56 108 -33 17 -34 17 -43 8z"/>
</g>
</svg>
